
  <!-- Generated by IcoMoon.io -->
  <svg version="1.1" xmlns="http://www.w3.org/2000/svg" width="100" height="100" viewBox="0 0 200 200">
  <symbol id="kettle" width="150" height="150">
    <!-- viewBox="0 0 50 50" is taken out bc I'm putting it in script-->
  <title>kettle</title>
  <path d="M37.642 16.3c-0.172-0.401-0.344-1.146-1.49-1.433s-0.86-1.203-1.375-1.719c-0.516-0.516-1.433-0.516-1.949-1.203s-0.63-1.49-1.662-1.662-1.032-0.63-3.496 0.688l0.172 0.287-1.203 0.63c0 0 0.917 0.63 0.745 1.949l0.217 0.248h-0.193c-0.115-0.125-0.196-0.191-0.196-0.191 0.058-1.547-0.974-1.949-0.974-1.949h-4.738v-0.172h5.023l-0.358-0.557c-0.098-0.152-0.267-0.245-0.449-0.245h-4.216v-0.115h0.84v-0.401c0 0 1.433-0.401 1.433-1.433h-4.699c0 1.032 1.433 1.433 1.433 1.433v0.401h0.91v0.115h-4.188c-0.174 0-0.339 0.080-0.446 0.217l-0.46 0.585h5.095v0.172h-4.808c0 0-1.032 0.401-0.974 1.949 0 0-1.318 1.089-0.974 2.751 0 0-1.203 1.146-0.86 2.522 0 0-0.265 0.361-0.458 0.918h-0.172l0-0.001c0 0-5.215 0.172-4.929-4.757 0 0 0.401-3.324-3.553-4.7l-1.147 0.343c0 0 3.897 0.917 3.725 4.413 0 0-0.219 4.94 5.36 5.419 0.002 0.001 0.003 0.001 0.003 0.001l0.033 0.002c0.11 0.009 0.221 0.017 0.336 0.023v-0.001l0.169 0.011c-0.027 0.232-0.031 0.479 0.003 0.735 0 0 0.010 0.012 0.038 0.032v0.23l-0.21 0.368c0 0 4.458 0.719 8.771 0.622 1.87 0.018 3.729-0.126 5.148-0.257 1.784-0.165 2.988-0.365 2.988-0.365l-0.229-0.401c-0.003 0.003-0.006 0.006-0.009 0.009v-0.23c0.006-0.006 0.009-0.009 0.009-0.009 0.172-1.318-0.63-2.407-0.63-2.407 0.344-1.375-0.86-2.522-0.86-2.522 0.22-1.064-0.241-1.893-0.601-2.352h0.198l0.002 0.002c0.058 0 0.516 0 0.516 0s-0.401-1.719-0.917-2.12l0.688-0.458 0.287 0.401c0 0 0.287 0.115 0.401 0s1.089-0.745 1.089-0.745 0.516-0.287 0.917 0.057c0.401 0.344 0.172 0.688 1.032 1.49s1.203 0.688 1.548 1.032c0.344 0.344 0.401 1.089 0.86 1.375s0.974 0.344 1.375 0.803c0.401 0.458 0.229 0.688 0.401 0.974s0.86 0.516 1.261 0.287c0.4-0.23 0.572-0.688 0.4-1.089zM13.172 20.8c-0.055-0.004-0.111-0.008-0.165-0.012l0.153-0.664h0.168c-0.068 0.203-0.125 0.43-0.157 0.675zM29.583 21.64v0.235c-0.739 0.438-4.518 0.54-7.011 0.56l-0.003-0.003c0 0-0.436 0.006-1.119 0.006-0.454-0-0.799-0.003-0.978-0.005-0.007 0-0.013 0.001-0.020 0.002-2.523-0.017-6.484-0.119-7.16-0.578v-0.2c0.413 0.23 2.093 0.837 8.131 0.603 6.192 0.24 7.801-0.405 8.16-0.62z"></path>
  </symbol>

  <symbol id="kalita" width="150" height="150">
      <!-- viewBox="0 0 50 50" is taken out bc I'm putting it in script-->
  <title>kalita</title>
  <path d="M25.603 18.4c0.038-0.115 0.145-0.192 0.266-0.192 0.106 0 0.203-0.060 0.25-0.155l0.593-1.185c0.048-0.096 0.147-0.156 0.254-0.155 1.019 0.014 6.164-0.148 5.826-4.88 0 0 0-1.117-2.226-1.496-0.016-0.002-0.032-0.004-0.048-0.004h-1.837c-0.191 0-0.326-0.188-0.266-0.369l0.222-0.666c0.026-0.079 0.017-0.165-0.027-0.235-0.243-0.386-1.516-1.426-8.193-1.73 0 0-6.488 0-8.602 1.509-0.251 0.179-0.352 0.503-0.255 0.796l3.031 9.093c0.050 0.149-0.033 0.31-0.183 0.356-0.921 0.284-1.647 0.717-1.866 1.372-0.75 2.25 7.875 2.25 7.875 2.25s7.125 0 7.125-1.875c0-0.803-0.757-1.331-1.888-1.672-0.151-0.046-0.236-0.207-0.186-0.357l0.135-0.405zM28.561 11.576c0.040-0.099 0.132-0.167 0.238-0.175 0.726-0.057 3.465-0.175 3.284 1.308-0.199 1.634-2.457 3.077-5.242 3.018-0.19-0.004-0.32-0.195-0.257-0.374l0.89-2.499c0.040-0.112 0.145-0.186 0.264-0.186h0.196c0.115 0 0.218-0.070 0.26-0.176l0.366-0.914zM12.378 9.063c0.381-0.434 1.891-1.324 7.872-1.229 6.733 0.107 7.77 1.097 7.93 1.382-0.017 0.005-0.032 0.013-0.046 0.025-0.073 0.060-0.738 0.366-1.239 0.513-0.001 0-0.002-0-0.001-0.001l0.19-0.418c0-0 0-0 0-0-0.003-0.006-0.086-0.205-0.25-0.042 0 0 0 0-0 0l-0.253 0.545c0 0-0 0-0.001 0-0.14 0.034-0.296 0.067-0.471 0.099-0.001 0-0.001-0-0.001-0.001l0.268-0.727c0 0 0 0 0 0 0-0.003-0.002-0.29-0.291-0.042 0 0-0 0-0 0l-0.305 0.824c0 0-0 0-0.001 0.001-0.157 0.024-0.326 0.047-0.509 0.070-0.001 0-0.001-0-0.001-0.001l0.315-1.144c0 0 0-0 0-0-0.042-0.331-0.33-0.045-0.333-0.042 0 0 0 0 0 0l-0.386 1.23c0 0-0 0.001-0.001 0.001-0.165 0.016-0.338 0.031-0.522 0.045-0 0-0.001-0-0.001-0.001l0.16-1.441c0 0 0-0 0-0-0.165-0.372-0.454-0.047-0.458-0.042 0 0 0 0 0 0l-0.159 1.513c0 0-0 0.001-0.001 0.001-0.208 0.012-0.428 0.022-0.659 0.030-0 0-0.001-0-0.001-0.001l0.070-1.626c0 0 0-0 0-0-0.165-0.372-0.454-0.047-0.458-0.042 0 0 0 0 0 0l-0.15 1.683c0 0-0 0.001-0.001 0.001-0.163 0.003-0.332 0.006-0.505 0.008-0 0-0.001-0-0.001-0.001l0.032-1.732c0-0 0-0 0-0-0.29-0.414-0.497-0.004-0.5 0 0 0 0 0 0 0l-0.071 1.735c0 0-0 0.001-0.001 0.001-0.15-0-0.302-0.001-0.459-0.003-0 0-0.001-0-0.001-0.001l-0.010-1.732c0 0 0-0 0-0-0.29-0.414-0.497-0.004-0.5 0 0 0 0 0 0 0l-0.030 1.723c0 0-0 0.001-0.001 0.001-0.15-0.003-0.304-0.007-0.46-0.012-0 0-0.001-0-0.001-0.001l-0.050-1.711c0 0 0-0 0-0-0.29-0.413-0.538-0.005-0.541 0 0 0 0 0 0 0l0.052 1.713c0 0-0 0.001-0.001 0.001-0.177 0.001-0.406 0-0.675-0.004-0 0-0.001-0-0.001-0.001v-1.709c0 0 0-0 0-0-0.207-0.371-0.577-0.006-0.583 0 0 0 0 0 0 0l0.076 1.697c0 0-0 0.001-0.001 0.001-0.162-0.005-0.333-0.011-0.512-0.019-0 0-0.001-0-0.001-0.001l-0.064-1.637c0 0 0-0 0-0-0.165-0.33-0.453-0.007-0.458 0 0 0 0 0 0 0l0.107 1.615c0 0-0 0.001-0.001 0.001-0.135-0.008-0.273-0.016-0.414-0.026-0 0-0.001-0-0.001-0.001l-0.108-1.506c0-0 0-0-0-0-0.29-0.331-0.456 0.074-0.458 0.079 0 0 0 0 0 0l0.195 1.398c0 0-0 0.001-0.001 0.001-0.129-0.010-0.259-0.022-0.391-0.035-0 0-0.001-0-0.001-0.001l-0.177-1.402c0 0 0-0-0-0-0.29-0.331-0.497 0.119-0.5 0.125 0 0 0 0 0 0l0.206 1.226c0 0.001-0 0.001-0.001 0.001-0.147-0.017-0.294-0.035-0.441-0.054-0 0-0.001-0-0.001-0.001l-0.179-1.131c0 0 0-0-0-0-0.331-0.373-0.498 0.078-0.5 0.083 0 0 0 0 0 0l0.18 0.975c0 0.001-0 0.001-0.001 0.001-0.147-0.023-0.293-0.047-0.439-0.074-0 0-0.001-0-0.001-0.001l-0.197-0.86c0 0 0-0-0-0-0.29-0.29-0.374 0.080-0.375 0.083 0 0 0 0 0 0l0.153 0.695c0 0.001-0 0.001-0.001 0.001-0.109-0.023-0.217-0.046-0.323-0.071v0l-0.162-0.5c0 0 0-0 0-0-0.248-0.29-0.332 0.038-0.333 0.042 0 0 0 0 0 0l0.065 0.35c0 0.001-0 0.001-0.001 0.001-0.106-0.028-0.795-0.23-1.005-0.292-0.004-0.072 0.018-0.146 0.070-0.205zM16.34 10.069c-0.153-0.015-0.308-0.031-0.464-0.049l0.464 0.049zM20.417 10.458c-5.864-0.091-7.518-0.67-7.985-0.976-0.046-0.030-0.079-0.071-0.1-0.117 0.455 0.152 1.552 0.472 2.617 0.627v0l0.009 0.001c0.152 0.022 0.313 0.044 0.485 0.065l0.002 0c1.082 0.134 2.56 0.245 4.555 0.274 5.114 0.073 7.542-0.519 8.191-0.95-0.122 0.292-1.045 1.18-7.775 1.075z"></path>
  </symbol>

  <symbol id="espresso" width="150" height="150">
      <!-- viewBox="0 0 50 50" is taken out bc I'm putting it in script-->
  <title>espresso</title>
  <path d="M36.081 19.374v0c0.004-0.422-0.205-0.903-0.873-1.374 0 0-0.875-0.625-1.542-0.792l0.042-0.125c0 0-0.593-0.148-1.365-0.215 1.293-0.027 2.050-0.132 2.457-0.216 0.238-0.049 0.408-0.259 0.408-0.502v-1.234c0 0-0.875 0.458-3.5 0.458-0.028 0-0.055-0-0.083-0v-0.125c0.014 0 0.028 0 0.042 0 2.542 0 3.417-0.417 3.417-0.417l-1.542-0.875c0 0-0.75 0.208-1.917 0.208v-0.094c1.1 0.025 1.708-0.182 1.786-0.229 0.016-0.003 0.031-0.006 0.047-0.010l-0.205-0.547c-0.030-0.079-0.042-0.163-0.038-0.248 0.033-0.645 0.198-3.516 0.494-3.997 0.233-0.378 0.608-0.838 0.813-1.081 0.094-0.111 0.145-0.251 0.145-0.396v-1.157c0-0.112-0.030-0.222-0.088-0.317-0.157-0.256-0.584-0.688-1.716-0.875v0c-0.653-0.178-1.662-0.105-2.15-0.053-0.095 0.009-0.186 0.020-0.273 0.032-0.006 0.001-0.010 0.001-0.010 0.001-1.218 0.174-1.672 0.623-1.838 0.889-0.060 0.097-0.091 0.208-0.091 0.322v1.157c0 0.145 0.051 0.285 0.145 0.396 0.205 0.243 0.58 0.702 0.813 1.081 0.295 0.48 0.46 3.352 0.494 3.997 0.005 0.084-0.009 0.168-0.038 0.248l-0.205 0.547c0.016 0.003 0.031 0.006 0.047 0.010 0.078 0.047 0.687 0.254 1.786 0.229v0.094c-1.127-0.010-2-0.208-2-0.208l-1.625 0.875c0 0 1.676 0.4 3.625 0.416v0.125c-2.511-0.019-3.708-0.457-3.708-0.457v1.193c0 0.26 0.185 0.482 0.441 0.527 0.477 0.085 1.361 0.2 2.736 0.231-0.188 0.019-0.373 0.049-0.552 0.091l0.042 0.125c0 0-2.208 0.083-3.25 1.833 0 0-0.137 0.276-0.084 0.666v0.585h0.003c0.022 0.606 0.164 0.5 0.164 0.5s0.117-0.184 0.235-0.16c-0.148-0.153-0.253-0.288-0.318-0.38v-0.227c0.239 0.605 1.004 1.35 3.167 1.809 0 0 0.25 0.055 0.664 0.084l-0.065 0.121c-0.505-0.032-1.051-0.125-1.557-0.33l-0.167 0.25c0 0 0.532 0.284 1.632 0.354l0.010 0.050c-1.21-0.053-1.641-0.362-1.641-0.362l0.125 0.542c0.589 0.192 1.132 0.277 1.609 0.3l0.014 0.073c-0.953-0.065-1.706-0.331-1.706-0.331l-0.167-0.625 0.208-0.292c-0.776-0.189-1.331-0.578-1.69-0.919 0.024 0.050 0.046 0.118 0.065 0.21 0.108 0.537 0.030 1.719 0.006 2.042h-0.461c-0.103-0.247-0.368-1.025-0.129-2.083l-2.458-0.125c0 0-0.26 0.296-0.31 0.932l-0.085-0.004c0.022-0.345 0.097-0.704 0.27-1.011l-0.292-0.458c0 0-0.396 0.117-0.404 1.449l-0.13-0.006c0.019-0.59 0.123-1.185 0.41-1.568l-2.958 0.542c0 0-0.244 0.331-0.258 0.892l-0.268-0.013c-0.010-0.343 0.053-0.695 0.276-0.962l-5.583-1.417c0 0-0.687 0.688-0.738 2.090l-0.232-0.011c0.046-1.423 0.721-2.078 0.721-2.078l-6.417 0.875c-0.792 0.833-0.25 1.833-0.25 1.833l6.333 1.625c-0.297-0.857-0.398-1.578-0.389-2.171l0.232 0.011c-0.011 0.595 0.093 1.315 0.407 2.16l5.917-0.75c0 0-0.235-0.535-0.273-1.12l0.264 0.012c0.004 0.29 0.071 0.635 0.259 1.025l2.708 0.917c0 0-0.18-0.884-0.162-1.807l0.133 0.006c0.003 0.437 0.046 0.998 0.154 1.718l0.417-0.375c0 0-0.178-0.623-0.15-1.323l0.085 0.004c-0.016 0.336 0.027 0.76 0.19 1.277 0 0 2.208 0.167 2.75 0h0.417c1.583 1.25 3.583 1.333 3.583 1.333 3.458 0.042 4.125-1.375 4.125-1.375l0.625-2.917-0.002-0.627zM32.101 17.223c0.567 0.045 1.525 0.203 2.483 0.735 0 0 1.333 0.708 0.708 1.583 0 0-0.155-1.298-2.375-1.792-0.291-0.065-0.557-0.104-0.83-0.123l0.014-0.404zM32.080 17.813c0.289 0.026 0.461 0.062 0.461 0.062 2.708 0.542 2.667 1.75 2.667 1.75-0.125-1.083-2.667-1.583-2.667-1.583s-0.178-0.027-0.468-0.046l0.006-0.183zM33.75 18.542c0 0 1.375 0.458 1.417 1.167l-0.083 0.083c0 0-0.295-1.177-3.028-1.272l0.009-0.25c0.519 0.025 1.128 0.097 1.685 0.271zM31.583 17.208c0 0 0.18-0.010 0.476 0.012l-0.014 0.404c-0.417-0.026-0.853-0.007-1.42 0.043 0 0-2.167 0.125-2.667 1.667 0 0-0.292-2.083 3.625-2.125zM29.333 18.167c1.064-0.409 2.11-0.407 2.705-0.358l-0.006 0.184c-0.425-0.025-1.069-0.030-1.741 0.090-1.561 0.279-2.333 1.333-2.333 1.333s0.070-0.749 1.375-1.25zM28 19.5c0.333-0.458 0.958-1.042 2.792-1.208 0 0 0.529-0.054 1.231-0.023l-0.009 0.25c-0.341-0.010-0.719-0.004-1.139 0.023 0 0-1.875-0.042-2.792 1.125l-0.083-0.167zM28.125 19.792c0 0 0.625-1.042 2.292-1.125 0 0 4.042-0.458 4.583 1.208 0 0-0.833 1.083-3.375 1.042 0 0-2.875-0.042-3.5-1.125zM36.017 20.123c-0.746 1.277-3.017 1.668-3.017 1.668v0.333l0.083 0.375c-0.643 0.28-1.364 0.332-2.001 0.293l-0.014-0.074c1.152 0.048 1.903-0.26 1.932-0.26l-0.083-0.333c-0.796 0.109-1.435 0.133-1.941 0.114l-0.009-0.048c0.523 0.030 1.172 0.012 1.95-0.107v-0.292c0 0-0.84 0.183-1.856 0.125l0.065-0.121c0.949 0.061 2.698-0.019 4.291-1.129 0 0 0.428-0.362 0.596-0.888 0.007 0.102 0.010 0.219 0.005 0.345z"></path>
  </symbol>

  <symbol id="coldbrew" width="150" height="150">
      <!-- viewBox="0 0 50 50" is taken out bc I'm putting it in script-->
  <title>coldbrew</title>
  <path d="M29.030 4.946c-1.453-0.183-4.795-0.331-5.426-0.358-0.058-0.003-0.104-0.050-0.104-0.108v-0.747c0-0.044-0.027-0.084-0.067-0.101-0.136-0.055-0.633-0.233-1.578-0.217-0.946-0.015-1.442 0.162-1.578 0.217-0.041 0.017-0.067 0.056-0.067 0.101v0.747c0 0.058-0.046 0.106-0.104 0.108-0.631 0.027-3.974 0.175-5.426 0.358-0.054 0.007-0.095 0.053-0.095 0.108v0.004c0 0.061 0.049 0.109 0.109 0.109h7.14v0.125h-6.708v5.458c0 0-0.040 0.896 1.417 1.407v1.093l0.003-0.001c-0.002 0.017-0.003 0.033-0.003 0.050v4.172c0 0.145-0.071 0.28-0.19 0.363-1.041 0.731-1.2 1.458-1.223 1.628-0.002 0.020-0.004 0.039-0.004 0.059v5.462c0 0.14 0.065 0.274 0.18 0.356 1.051 0.757 6.062 0.86 6.57 0.868v0.001c0 0 0.008 0 0.021-0s0.021 0 0.021 0v-0.001c0.508-0.008 5.519-0.111 6.57-0.868 0.114-0.082 0.18-0.216 0.18-0.356v-5.461c0-0.020-0.001-0.039-0.004-0.059-0.023-0.17-0.182-0.897-1.223-1.628-0.119-0.083-0.19-0.218-0.19-0.363v-4.172c0-0.003-0-0.005-0-0.008h0v-1.041c0.685-0.235 1.235-0.659 1.25-1.418 0.042-2.042 0-5.542 0-5.542h-6.583v-0.125h7.1c0.060 0 0.109-0.049 0.109-0.109v-0.004c0-0.054-0.040-0.1-0.095-0.107zM27.917 24.97c0 0.040-0.17 0.078-0.476 0.113-0.92-0.222-3.078-0.53-5.607-0.53-2.531 0-4.713 0.308-5.645 0.53-0.31-0.035-0.48-0.073-0.48-0.114 0-0.161 2.754-0.708 6.125-0.708s6.083 0.547 6.083 0.708zM25.832 18.364c0.005 0.001 0.010 0.002 0.015 0.003 0.21 0.036 0.362 0.222 0.362 0.435v0.605c0 0.198-0.13 0.37-0.32 0.425-0.426 0.125-1.417 0.277-3.722 0.292v-0.123c2.444 0 3.833-0.333 3.833-0.333v-1.042l-0.632-0.049c-3.201-0.43-6.405-0.085-7.242 0.020v0c-0.373 0.014-0.377 0.112-0.377 0.112v0.958c1.689 0.247 3.161 0.331 4.375 0.333v0.124c-0.068 0-0.137 0.001-0.208 0.001v0c-0.021 0-0.042 0-0.063 0s-0.041 0-0.063 0v-0c-2.484-0.005-3.531-0.164-3.972-0.293-0.19-0.055-0.32-0.228-0.32-0.425v-0.605c0-0.213 0.152-0.399 0.362-0.435 0.005-0.001 0.010-0.002 0.015-0.003 0.215-0.035 0.373-0.22 0.373-0.437v-2.984c0-0.245 0.198-0.443 0.443-0.443h6.323c0.245 0 0.443 0.198 0.443 0.443v2.984c0 0.218 0.158 0.402 0.373 0.437zM17.994 18.633c4.393 0.472 7.1 0.093 7.621 0.008l0.282 0.019c-1.705 0.535-7.363 0.108-8.074 0.054 0.016-0.047 0.090-0.070 0.17-0.080zM27.070 12.307c-0.179 0.26-0.535 0.525-1.245 0.555-0.737-0.012-1.548-0.047-1.88-0.063-0.103-0.005-0.205 0.027-0.287 0.089-0.149 0.112-0.407 0.32-0.7 0.612-0.378 0.378-0.842 0.416-1.063 0.418-0.22-0.002-0.684-0.039-1.063-0.418-0.293-0.293-0.551-0.5-0.7-0.612-0.082-0.062-0.184-0.094-0.287-0.089-0.297 0.014-0.978 0.044-1.647 0.058 0 0-1.253 0.050-1.518-0.654 0.619 0.194 1.484 0.32 2.693 0.297 4.333-0.083 5.167 0 5.167 0s1.394 0.133 2.528-0.193zM23.552 5.833c0.040 0 0.073 0.032 0.073 0.073v0.229c0 0.040-0.032 0.073-0.073 0.073h-0.896c-0.040 0-0.073 0.032-0.073 0.073v1.302c0 0.084-0.134 0.074-0.208 0.083-0.036 0.005-0.042 0.073-0.042 0.11v3.521c0 0.042 0.035 0.075 0.077 0.073 0.288-0.013 0.382 0.066 0.41 0.107 0.008 0.012 0.012 0.026 0.012 0.041v0.485c0 0.026-0.014 0.050-0.036 0.063-0.141 0.085-0.299 0.066-0.332 0.060-0.005-0.001-0.010-0.001-0.015-0.001-0.048 0.003-0.304 0.017-0.575 0.018-0.271-0.001-0.527-0.015-0.575-0.018-0.005-0-0.010 0-0.015 0.001-0.034 0.005-0.191 0.024-0.332-0.060-0.022-0.013-0.036-0.037-0.036-0.063v-0.485c0-0.015 0.004-0.029 0.012-0.041 0.029-0.041 0.123-0.12 0.41-0.107 0.042 0.002 0.077-0.031 0.077-0.073v-3.521c0-0.037-0.005-0.105-0.042-0.11-0.074-0.009-0.208 0-0.208-0.083l0.042-1.302c0-0.040-0.074-0.073-0.115-0.073h-0.896c-0.040 0-0.073-0.032-0.073-0.073v-0.229c0-0.040 0.032-0.073 0.073-0.073h3.354z"></path>
  </symbol>

  <symbol id="chemex" width="150" height="150" >
      <!-- viewBox="0 0 50 50" is taken out bc I'm putting it in script-->
  <title>chemex</title>
  <path d="M27.711 21.213c-0.002-0.003-0.003-0.006-0.005-0.010l-2.269-4.903c-0.036-0.078-0.12-0.12-0.204-0.104-0.203 0.041-0.62 0.117-1.225 0.19-0.101 0.012-0.194-0.060-0.206-0.161l-0.069-0.567c-0.013-0.168-0.035-0.365-0.070-0.575v-0c-0.048-0.282-0.122-0.589-0.235-0.885-0.008-0.020-0.014-0.041-0.018-0.063-0.022-0.112-0.095-0.492-0.14-0.875 0.080-0.012 0.157-0.025 0.23-0.038 0.023 0.322 0.1 0.535 0.168 0.738 0.234 0.701 0.303 1.504 0.325 1.922 0.008 0.155 0.145 0.27 0.298 0.251l0.988-0.124c0.040-0.005 0.078-0.019 0.112-0.040 0.535-0.343 0.293-0.86 0.244-0.953-0.004-0.008-0.009-0.016-0.014-0.023-0.341-0.499-0.882-1.802-0.979-2.037-0.010-0.024-0.017-0.050-0.019-0.076-0.137-1.422 0.675-2.552 0.784-2.695 0.008-0.011 0.016-0.023 0.022-0.035 0.159-0.294 0.23-0.501 0.255-0.646 0.030-0.178-0.124-0.331-0.302-0.304l-0.971 0.147c-0.115 0.018-0.206 0.108-0.223 0.224-0.038 0.263-0.137 0.809-0.394 1.723-0.022 0.078-0.042 0.153-0.061 0.226-0.082 0.023-0.168 0.043-0.258 0.060 0.295-0.994 0.784-2.958 1.188-6.115 0.069-0.027 0.139-0.055 0.206-0.082l-0.658 3.785 1.125-0.208 2.375-4.5 0.219-0.345c0.065-0.070 0.031-0.114 0.031-0.114 0-0.667-5.958-0.333-5.958-0.333-8.511 0-8.096 0.585-8.010 0.659l0.373 0.462 2.471 4.213c0 0-0.292 0.458 4.958 0.333 0 0 0.958-3.625 0.667-4.292 0 0-6.9 0.208-8.162-0.373l-0.272-0.321c1.357 0.773 8.6 0.485 8.6 0.485l0.375 0.25c2.042 0.708 1.958-0.333 1.958-0.333 2.022-0.202 2.695-0.435 2.911-0.587-0.052 0.086-0.137 0.223-0.213 0.32-0.386 0.139-2.49 0.434-2.49 0.434-0.068 0.17-0.22 0.341-0.273 0.397-0.217 0.112-0.376 0.151-0.376 0.151s-0.096 0.022-0.195 0.052c-0.362 0.061-0.974 0.048-1.669-0.455 0.093 0.12 0.321 0.942-0.741 6.587-0.135-0.007-0.264-0.016-0.382-0.027 0.050-0.666 0.151-1.376 0.211-1.771 0.025-0.161-0.102-0.306-0.265-0.302-0.974 0.023-3.913 0.064-4.644-0.236-0.142-0.058-0.306 0.020-0.352 0.167-0.046 0.149-0.046 0.334 0.102 0.519 0.333 0.417 1.079 1.723 1.042 2.5 0 0 0 0.833-0.167 1.333-0.146 0.438-0.675 1.194-0.804 1.376-0.021 0.030-0.036 0.064-0.043 0.1-0.034 0.169-0.080 0.652 0.431 0.857 0.537 0.215 3.78 0.214 4.683 0.21 0.143-0.001 0.26-0.116 0.261-0.26 0.001-0.266-0.046-0.776-0.277-1.7-0.075-0.302-0.125-0.757-0.157-1.165 0.093 0.016 0.186 0.029 0.277 0.039 0.033 0.368 0.095 0.833 0.213 1.168 0 0 0.108 0.324 0.214 0.872 0.001 0.006 0.002 0.012 0.003 0.018 0.006 0.060 0.041 0.426 0.077 0.806 0.019 0.204-0.136 0.383-0.341 0.392-1.271 0.053-2.86 0.035-4.694-0.157-0.079-0.008-0.154 0.034-0.188 0.106l-2.359 5.124c-0.002 0.004-0.003 0.008-0.005 0.012-0.059 0.157-1.213 3.288 0.476 5.010 0.040 0.040 0.056 0.098 0.048 0.154-0.052 0.384 0.14 1.891 6.513 1.455 0.005-0 0.010-0 0.014-0 0.212 0.003 5.285 0.045 5.733-1.703 0.008-0.030 0.021-0.058 0.041-0.080 0.24-0.271 1.792-2.21 0.138-5.253zM23.233 12.745c-0-0.131-0.111-0.234-0.242-0.223-0.282 0.024-0.728 0.063-0.99 0.085-0.12 0.010-0.209 0.113-0.204 0.232 0.004 0.086 0.011 0.205 0.022 0.344-0.097-0.006-0.189-0.013-0.275-0.021-0.033-0.455-0.045-0.829-0.045-0.829 0-0.192 0.009-0.403 0.024-0.621 0.124 0.021 0.247 0.036 0.368 0.047-0.025 0.13-0.050 0.261-0.075 0.396-0.033 0.172 0.108 0.329 0.283 0.314l0.82-0.070c0.18-0.015 0.333-0.135 0.391-0.306 0.036-0.106 0.080-0.242 0.132-0.411 0.093-0.017 0.18-0.035 0.26-0.053-0.172 0.684-0.22 1.15-0.208 1.495-0.077 0.014-0.155 0.026-0.235 0.036-0.015-0.146-0.025-0.289-0.026-0.414z"></path>
  </symbol>

  <defs>
    <linearGradient id="gradient1" x1="0%" y1="0%" x2="100%" y2="0%">
      <stop offset="0%" stop-color="burlyWood " stop-opacity="0.8" />
      <stop offset="100%" stop-color="sienna " stop-opacity="0.8" />
    </linearGradient>
  </defs>

  </svg>
